<?xml version="1.0" standalone="no"?>
<!DOCTYPE svg PUBLIC "-//W3C//DTD SVG 20010904//EN"
 "http://www.w3.org/TR/2001/REC-SVG-20010904/DTD/svg10.dtd">
<svg version="1.0" xmlns="http://www.w3.org/2000/svg"
 width="500.000000pt" height="500.000000pt" viewBox="0 0 500.000000 500.000000"
 preserveAspectRatio="xMidYMid meet">
<metadata>
Created by potrace 1.10, written by Peter Selinger 2001-2011
</metadata>
<g transform="translate(0.000000,500.000000) scale(0.100000,-0.100000)"
fill="#000000" stroke="none">
<path d="M3273 4268 l-122 -123 -3 -1010 c-3 -1004 -4 -1010 -25 -1087 -94
-330 -303 -550 -623 -653 -104 -33 -278 -45 -396 -26 -309 50 -575 260 -691
546 -18 44 -33 85 -33 90 0 6 49 59 109 119 l110 109 6 -39 c22 -138 51 -214
120 -309 86 -121 229 -217 371 -251 95 -22 266 -15 351 14 153 53 297 176 366
312 75 149 71 87 74 1048 2 474 0 862 -4 862 -5 0 -178 -170 -386 -378 l-377
-377 0 -453 0 -452 34 -38 c32 -34 38 -37 91 -37 53 0 59 3 91 37 l34 38 0
398 0 397 123 123 c67 67 126 122 130 122 4 0 6 -246 5 -547 l-3 -548 -26 -55
c-40 -85 -99 -144 -186 -187 -71 -35 -82 -38 -168 -38 -86 0 -97 3 -168 38
-86 43 -141 98 -184 186 l-28 56 -3 343 c-2 188 -6 342 -10 342 -4 0 -175
-168 -381 -374 l-374 -374 21 -90 c114 -487 503 -831 1010 -892 207 -25 439
17 637 118 339 171 572 494 625 868 7 55 10 409 8 1187 l-3 1107 -122 -122z"/>
</g>
</svg>
